<svg width="47" height="47" xmlns="http://www.w3.org/2000/svg" xmlns:xlink="http://www.w3.org/1999/xlink" xml:space="preserve" overflow="hidden"><g transform="translate(-102 -562)"><path d="M27.1126 40.7466 13.9224 40.7466C13.0549 40.7466 12.3491 40.0423 12.3491 39.1768L12.3491 30.7379C12.3491 30.2331 12.7583 29.824 13.263 29.824 13.7677 29.824 14.1769 30.2331 14.1769 30.7379L14.1769 38.9189 17.6737 38.9189 17.6737 32.8966C17.6737 32.1356 18.2194 31.3268 19.2308 31.3268L21.8041 31.3268C22.559 31.3268 23.3614 31.877 23.3614 32.8966L23.3614 38.9189 26.8582 38.9189 26.8582 30.7379C26.8582 30.2331 27.2673 29.824 27.772 29.824 28.2768 29.824 28.6859 30.2331 28.6859 30.7379L28.6859 39.1768C28.6859 40.0424 27.9801 40.7466 27.1126 40.7466ZM19.5015 38.9189 21.5336 38.9189 21.5336 33.1546 19.5015 33.1546 19.5015 38.9189ZM31.7657 30.8525C31.5155 30.8525 31.2664 30.7504 31.0858 30.5496L20.5175 18.7932 9.94912 30.5496C9.61189 30.9248 9.03392 30.9556 8.65858 30.6183 8.28323 30.2808 8.25242 29.703 8.5899 29.3276L19.8379 16.8152C20.0112 16.6223 20.2583 16.5123 20.5176 16.5123 20.7769 16.5123 21.0239 16.6223 21.1973 16.8152L32.4453 29.3276C32.7826 29.703 32.7519 30.2808 32.3766 30.6183 32.202 30.7752 31.9835 30.8525 31.7659 30.8525ZM32.6438 27.9241C32.3039 27.9241 31.9774 27.7335 31.8198 27.4066 31.6007 26.952 31.7918 26.4056 32.2466 26.1866 37.0724 23.8618 37.0091 19.6585 36.4693 17.1969 35.9977 17.6455 35.4629 18.0287 34.8873 18.3278 34.5946 18.4799 34.2424 18.4625 33.966 18.2818 33.6896 18.1013 33.5323 17.7857 33.5541 17.4565 33.8205 13.4338 31.6035 10.5793 29.7449 8.9176 29.6065 10.0743 28.9919 11.1453 28.011 11.8474 26.9301 12.6409 25.9944 13.6149 25.2387 14.7355 25.042 15.0273 24.6952 15.1803 24.3469 15.1286 23.9989 15.0769 23.7112 14.8299 23.6077 14.4936 23.3627 13.6981 22.8116 13.0519 22.0951 12.6814 22.0752 13.5403 21.8516 14.3936 21.4406 15.1501 21.1997 15.5936 20.6448 15.7578 20.2013 15.5168 19.7578 15.2758 19.5935 14.7209 19.8345 14.2774 20.1815 13.6386 20.327 12.8958 20.248 12.1735 20.134 11.8379 20.1672 11.4632 20.3475 11.1502 20.3735 11.1051 20.4034 11.0622 20.4366 11.0223 20.733 10.6659 21.1944 10.5078 21.6456 10.6066 22.8659 10.8494 23.9229 11.5405 24.6326 12.5138 25.3132 11.7125 26.0847 10.994 26.938 10.3675 27.7193 9.80825 28.0909 8.85206 27.8953 7.92224 27.7797 7.43109 27.9762 6.91814 28.39 6.63 28.826 6.31523 29.424 6.32124 29.8541 6.64776 31.4447 7.83607 34.8904 10.9357 35.3517 15.7322 35.4897 15.5903 35.6193 15.4405 35.7396 15.2837 36.0136 14.8801 36.4997 14.6823 36.9797 14.7819 37.4303 14.8649 37.795 15.1839 37.9371 15.622 38.5759 17.6296 40.1058 24.4292 33.0397 27.8334 32.9119 27.895 32.7766 27.9241 32.6437 27.9241ZM28.7547 8.10776C28.757 8.10946 28.7592 8.11102 28.7614 8.11272 28.759 8.11102 28.757 8.10946 28.7547 8.10776Z" fill="#009FE3" transform="matrix(1.00036 0 0 1 101.992 562)"/></g></svg>