<svg width="47" height="48" xmlns="http://www.w3.org/2000/svg" xmlns:xlink="http://www.w3.org/1999/xlink" xml:space="preserve" overflow="hidden"><g transform="translate(-756 -394)"><path d="M8.74722 40.0153C8.23806 40.0153 7.83333 39.6106 7.83333 39.1014L7.83333 7.96389C7.83333 7.45472 8.23806 7.05 8.74722 7.05 9.25639 7.05 9.66111 7.45472 9.66111 7.96389L9.66111 9.85694 12.5856 8.95611C16.2803 7.82028 20.2883 8.32944 23.5783 10.3531 26.3461 12.0503 29.7275 12.5203 32.8478 11.6325L35.9289 10.7447C36.1378 10.6794 36.3597 10.6533 36.5817 10.6533L36.5817 10.6533C37.8872 10.6533 38.9578 11.7239 38.9578 13.0294L38.9578 29.7928C38.9578 30.8503 38.2528 31.7903 37.2344 32.0775L33.3439 33.1872C29.7275 34.2186 25.8239 33.6833 22.6122 31.7119 19.7661 29.9625 16.3064 29.5186 13.1208 30.5108L9.66111 31.5814 9.66111 39.1144C9.66111 39.6236 9.25639 40.0283 8.74722 40.0283ZM16.5283 28.1739C18.9828 28.1739 21.4242 28.8528 23.5653 30.1714 26.3331 31.8686 29.7144 32.3386 32.8347 31.4508L36.7253 30.3411C36.9603 30.2758 37.13 30.0539 37.13 29.8058L37.13 13.0425C37.13 12.7422 36.8819 12.4942 36.5817 12.4942 36.5294 12.4942 36.4772 12.4942 36.4381 12.5203L33.3569 13.395C29.7406 14.4264 25.8369 13.8911 22.6253 11.9197 19.7792 10.1703 16.3194 9.72639 13.1339 10.7186L9.67417 11.7892 9.67417 29.6883 12.5986 28.7875C13.8911 28.3958 15.2228 28.2 16.5414 28.2Z" fill="#009FE3" transform="matrix(1 0 0 1.02128 756 394)"/></g></svg>