<svg width="47" height="47" xmlns="http://www.w3.org/2000/svg" xmlns:xlink="http://www.w3.org/1999/xlink" xml:space="preserve" overflow="hidden"><g transform="translate(-944 -479)"><path d="M987.997 499.197 981.391 488.818C981.13 488.426 980.699 488.178 980.229 488.178 979.759 488.178 979.707 488.256 979.498 488.387L976.26 490.45C975.869 490.711 975.621 491.142 975.621 491.612 975.621 492.082 975.634 491.873 975.673 491.99L974.85 492.46C974.25 492.46 973.649 492.46 972.957 492.486 971.926 492.486 970.751 492.526 969.223 492.526 967.696 492.526 966.899 492.604 966.025 492.774 965.594 492.852 964.889 493.009 964.288 493.309 963.714 492.983 963.166 492.8 962.108 492.878 961.299 492.943 960.124 492.434 959.34 492.016 959.379 491.886 959.406 491.755 959.406 491.612 959.406 491.142 959.171 490.711 958.766 490.45L955.541 488.4C955.319 488.256 955.071 488.178 954.797 488.178 954.327 488.178 953.896 488.413 953.635 488.818L947.029 499.197C946.885 499.419 946.807 499.667 946.807 499.928 946.807 500.398 947.042 500.829 947.447 501.09L950.698 503.153C950.75 503.179 950.802 503.205 950.854 503.231 951.037 503.323 951.233 503.362 951.429 503.362 951.624 503.362 951.938 503.283 952.147 503.153L952.969 503.949C952.303 504.484 951.925 505.268 951.925 506.129 951.925 506.991 952.121 507.318 952.486 507.814L952.486 507.814C952.486 507.879 952.525 507.905 952.551 507.931 953.047 508.597 953.805 508.989 954.627 509.041L954.627 509.119C954.627 509.746 954.797 510.359 955.176 510.882L955.176 510.882 955.176 510.921C955.215 510.947 955.228 510.986 955.254 511.012 955.802 511.756 956.638 512.2 957.565 512.226L957.63 512.226C957.904 512.226 958.178 512.187 958.439 512.109 958.505 512.54 958.688 512.958 958.949 513.31L958.949 513.31C958.949 513.362 958.988 513.401 959.001 513.427 959.523 514.119 960.319 514.511 961.181 514.511 962.043 514.511 961.925 514.433 962.265 514.289 962.343 514.602 962.474 514.903 962.682 515.177L962.696 515.177C962.709 515.216 962.735 515.242 962.748 515.268 963.205 515.882 963.91 516.221 964.667 516.221 965.424 516.221 965.424 516.13 965.751 515.96 966.416 516.3 967.578 516.822 968.779 516.822 969.981 516.822 969.759 516.731 970.229 516.509 970.699 516.287 971.404 515.778 971.612 514.746 972.513 514.89 973.284 514.785 973.884 514.407 974.916 513.78 975.177 512.931 975.164 512.213 976.299 512.514 977.174 512.435 977.84 511.991 978.467 511.574 978.871 510.986 979.002 510.32 979.093 509.811 979.041 509.276 978.832 508.688 979.537 508.571 980.268 508.297 980.751 507.788 981.182 507.331 981.404 506.612 981.352 505.829 981.313 505.242 981.143 504.68 980.869 504.197L982.684 503.022C982.919 503.218 983.219 503.323 983.545 503.323 983.872 503.323 983.937 503.283 984.12 503.192L984.276 503.114 987.527 501.051C987.919 500.79 988.167 500.359 988.167 499.889 988.167 499.419 988.089 499.38 987.945 499.158L987.945 499.197 987.997 499.197ZM964.889 495.084C964.915 495.084 964.928 495.045 964.954 495.032 965.137 494.915 965.581 494.719 966.351 494.575 967.108 494.432 968.101 494.366 969.223 494.366 970.346 494.366 971.952 494.34 972.996 494.327 973.78 494.327 974.446 494.301 975.111 494.301 975.777 494.301 975.425 494.262 975.568 494.184L976.639 493.57 980.334 499.223C980.334 499.249 980.36 499.262 980.373 499.288L981.731 501.547 979.629 502.905C978.506 502.043 976.365 500.516 974.432 499.132 972.879 498.022 971.417 496.964 970.973 496.625 969.968 495.724 968.74 495.502 967.683 496.051 967.513 496.129 967.369 496.259 967.095 496.508 966.443 497.108 964.497 498.91 963.1 498.557 962.696 498.401 962.395 498.218 962.213 498.061 962.917 497.33 964.093 496.116 964.38 495.737L964.484 495.594C964.654 495.372 964.758 495.215 964.902 495.098L964.902 495.098 964.889 495.084ZM951.285 501.351 948.831 499.784 954.954 490.176 957.421 491.742 953.139 498.283C953.113 498.322 953.1 498.361 953.074 498.401L951.298 501.338 951.285 501.338 951.285 501.351ZM954.027 506.821 953.935 506.717C953.805 506.547 953.739 506.351 953.739 506.142 953.739 505.829 953.883 505.542 954.131 505.359L956.168 503.832C956.338 503.701 956.533 503.636 956.755 503.636 956.977 503.636 957.356 503.779 957.539 504.027L957.63 504.145C957.761 504.315 957.826 504.511 957.826 504.719 957.826 504.928 957.695 505.294 957.447 505.49L955.815 506.717C955.789 506.743 955.75 506.769 955.724 506.782L955.398 507.03C955.228 507.161 955.032 507.226 954.823 507.226 954.614 507.226 954.288 507.109 954.092 506.913 954.092 506.887 954.053 506.861 954.027 506.821L954.027 506.821 954.027 506.821ZM957.63 510.399C957.317 510.399 957.029 510.255 956.821 510.02 956.821 509.994 956.781 509.955 956.755 509.929L956.664 509.811C956.52 509.615 956.455 509.393 956.468 509.158 956.468 508.806 956.638 508.506 956.925 508.297L959.588 506.378C959.784 506.234 960.006 506.169 960.241 506.169 960.581 506.169 960.894 506.338 961.103 506.626L961.194 506.756C961.338 506.952 961.403 507.161 961.403 507.409 961.403 507.657 961.233 508.049 960.959 508.258L958.727 509.863C958.688 509.889 958.661 509.916 958.635 509.942L958.283 510.19C958.087 510.333 957.878 510.399 957.63 510.399L957.63 510.399 957.63 510.399ZM962.069 512.292 961.756 512.527C961.599 512.644 961.429 512.709 961.233 512.709 961.037 512.709 960.737 512.605 960.568 512.422 960.568 512.396 960.528 512.37 960.515 512.344L960.437 512.239C960.319 512.083 960.267 511.9 960.267 511.717 960.267 511.43 960.398 511.169 960.62 510.999L962.565 509.537C962.722 509.419 962.891 509.354 963.1 509.354 963.309 509.354 963.649 509.485 963.818 509.707L963.91 509.824C964.027 509.981 964.093 510.151 964.093 510.346 964.093 510.542 963.975 510.869 963.753 511.051L962.186 512.226C962.16 512.253 962.121 512.279 962.095 512.292L962.069 512.292 962.069 512.292ZM965.32 514.106 965.072 514.289C964.967 514.367 964.863 514.407 964.732 514.407 964.602 514.407 964.419 514.341 964.314 514.224 964.301 514.198 964.288 514.172 964.262 514.159L964.197 514.08C964.119 513.976 964.079 513.871 964.079 513.741 964.079 513.61 964.158 513.388 964.314 513.284L965.92 512.07C966.025 511.991 966.129 511.952 966.26 511.952 966.39 511.952 966.612 512.031 966.717 512.187L966.795 512.279C966.873 512.383 966.912 512.487 966.912 512.618 966.912 512.749 966.834 512.958 966.691 513.075L965.411 514.041C965.385 514.067 965.359 514.08 965.333 514.106L965.32 514.106 965.32 514.106ZM979.472 506.56C979.119 506.939 978.01 507.017 977.696 506.926 977.318 506.795 976.887 506.926 976.652 507.239 976.404 507.566 976.391 508.009 976.626 508.349 977.266 509.289 977.292 509.785 977.253 509.994 977.226 510.111 977.161 510.294 976.874 510.49 976.822 510.529 976.299 510.816 974.524 510.033 974.393 509.981 974.302 509.942 974.171 509.916 973.923 509.876 973.662 509.955 973.466 510.111 973.271 510.268 973.153 510.503 973.127 510.751 973.114 510.999 973.179 511.234 973.244 511.495 973.466 512.279 973.466 512.566 972.97 512.866 972.814 512.958 972.304 513.153 971.103 512.736L971.051 512.736C970.79 512.631 970.516 512.67 970.281 512.814 970.046 512.958 969.902 513.193 969.863 513.467 969.85 513.597 969.863 513.702 969.863 513.806 969.954 514.511 969.772 514.746 969.484 514.877 968.923 515.138 968.153 514.968 967.487 514.733L967.761 514.537 967.774 514.537C968.362 514.067 968.701 513.388 968.701 512.644 968.701 511.9 968.531 511.626 968.218 511.208L968.14 511.117C967.683 510.503 966.978 510.164 966.221 510.164 965.463 510.164 965.972 510.164 965.855 510.19 965.816 509.654 965.633 509.158 965.307 508.728L965.215 508.61C964.719 507.957 963.988 507.579 963.179 507.526L963.179 507.474C963.192 506.834 963.009 506.234 962.63 505.712L962.539 505.581C961.991 504.837 961.155 504.393 960.241 504.367 960.019 504.367 959.81 504.38 959.601 504.419 959.549 503.91 959.366 503.44 959.053 503.035L958.962 502.918C958.426 502.213 957.604 501.808 956.716 501.808 955.828 501.808 955.515 502.004 955.032 502.369L954.405 502.839 953.191 501.664 954.627 499.288C954.627 499.275 954.653 499.249 954.666 499.223L958.361 493.583C959.21 494.053 960.659 494.719 961.951 494.719L962.813 494.719C962.474 495.124 961.22 496.416 960.385 497.278 960.189 497.474 960.097 497.761 960.137 498.048 960.306 499.288 961.651 499.98 962.448 500.281 962.474 500.281 962.513 500.307 962.539 500.307 964.915 500.986 967.291 498.792 968.309 497.865 968.375 497.8 968.466 497.722 968.518 497.682 968.897 497.5 969.302 497.617 969.732 497.996 969.759 498.022 969.785 498.048 969.811 498.061L969.811 498.061C970.268 498.427 971.704 499.445 973.362 500.633 975.568 502.213 978.323 504.184 979.015 504.772 979.328 505.046 979.537 505.477 979.576 505.96 979.602 506.312 979.511 506.547 979.472 506.599L979.472 506.56 979.472 506.56ZM983.741 501.351 981.966 498.414C981.953 498.374 981.926 498.335 981.9 498.296L977.618 491.755 980.086 490.189 986.209 499.797 983.754 501.364 983.741 501.364 983.741 501.351Z" fill="#009FE3"/></g></svg>