<svg width="47" height="47" xmlns="http://www.w3.org/2000/svg" xmlns:xlink="http://www.w3.org/1999/xlink" xml:space="preserve" overflow="hidden"><g transform="translate(-386 -139)"><path d="M410.315 177.373C407.326 177.373 404.894 174.935 404.894 171.94 404.894 171.435 405.303 171.027 405.808 171.027 406.313 171.027 406.722 171.435 406.722 171.94 406.722 173.929 408.333 175.545 410.315 175.545 412.297 175.545 413.908 173.928 413.908 171.94 413.908 169.953 412.297 168.336 410.315 168.336L392.289 168.336C391.784 168.336 391.375 167.927 391.375 167.422 391.375 166.917 391.784 166.508 392.289 166.508L410.315 166.508C413.303 166.508 415.735 168.946 415.735 171.94 415.735 174.935 413.304 177.373 410.315 177.373ZM422.896 163.149 392.289 163.149C391.784 163.149 391.375 162.74 391.375 162.235 391.375 161.73 391.784 161.321 392.289 161.321L422.895 161.321C425.203 161.321 427.082 159.405 427.082 157.049 427.082 154.694 425.203 152.778 422.895 152.778 420.587 152.778 418.708 154.694 418.708 157.049 418.708 157.555 418.299 157.963 417.794 157.963 417.289 157.963 416.88 157.555 416.88 157.049 416.88 153.686 419.579 150.95 422.895 150.95 426.211 150.95 428.91 153.686 428.91 157.049 428.91 160.412 426.211 163.149 422.895 163.149ZM407.731 158.015 392.289 158.015C391.784 158.015 391.375 157.607 391.375 157.102 391.375 156.596 391.784 156.188 392.289 156.188L407.731 156.188C409.356 156.188 410.678 154.943 410.678 153.415 410.678 151.886 409.356 150.642 407.731 150.642 406.106 150.642 404.784 151.886 404.784 153.415 404.784 153.92 404.376 154.329 403.87 154.329 403.365 154.329 402.957 153.92 402.957 153.415 402.957 150.878 405.099 148.814 407.731 148.814 410.363 148.814 412.505 150.878 412.505 153.415 412.505 155.951 410.363 158.015 407.731 158.015Z" fill="#009FE3"/></g></svg>