<svg width="47" height="47" xmlns="http://www.w3.org/2000/svg" xmlns:xlink="http://www.w3.org/1999/xlink" xml:space="preserve" overflow="hidden"><g transform="translate(-850 -228)"><path d="M887.783 264.347 887.783 264.347 887.783 264.347ZM873.5 264.529C873.213 264.529 872.912 264.451 872.651 264.281 872.456 264.164 872.299 263.994 872.181 263.811 869.596 259.764 863.565 249.868 863.565 245.521 863.565 240.037 868.017 235.585 873.5 235.572L873.5 235.572C878.983 235.572 883.435 240.037 883.435 245.521 883.435 251.004 877.404 259.764 874.819 263.811 874.518 264.281 874.009 264.529 873.487 264.529ZM873.5 237.4C869.022 237.4 865.393 241.042 865.393 245.521 865.393 248.628 869.544 256.252 873.5 262.493 877.469 256.265 881.607 248.628 881.607 245.521 881.607 241.042 877.965 237.4 873.5 237.4L873.5 237.4ZM873.5 250.573C870.458 250.573 867.977 248.092 867.977 245.051 867.977 242.009 870.458 239.528 873.5 239.528 876.542 239.528 879.023 242.009 879.023 245.051 879.023 248.092 876.542 250.573 873.5 250.573ZM873.5 241.356C871.463 241.356 869.805 243.014 869.805 245.051 869.805 247.087 871.463 248.745 873.5 248.745 875.537 248.745 877.195 247.087 877.195 245.051 877.195 243.014 875.537 241.356 873.5 241.356Z" fill="#009FE3"/></g></svg>