<svg width="47" height="47" xmlns="http://www.w3.org/2000/svg" xmlns:xlink="http://www.w3.org/1999/xlink" xml:space="preserve" overflow="hidden"><g transform="translate(-291 -310)"><path d="M314.435 350.211C305.257 350.211 297.789 342.743 297.789 333.565 297.789 324.387 305.257 316.919 314.435 316.919 323.613 316.919 331.081 324.387 331.081 333.565 331.081 342.743 323.613 350.211 314.435 350.211ZM314.435 318.747C306.262 318.747 299.617 325.392 299.617 333.565 299.617 341.738 306.262 348.383 314.435 348.383 322.608 348.383 329.253 341.738 329.253 333.565 329.253 325.392 322.608 318.747 314.435 318.747ZM312.816 340.041C312.307 340.041 311.797 339.871 311.393 339.545L305.661 334.962C305.27 334.649 305.204 334.074 305.518 333.683 305.831 333.291 306.406 333.226 306.797 333.539L312.529 338.122C312.62 338.2 312.751 338.226 312.868 338.213 312.986 338.2 313.103 338.135 313.181 338.03L321.916 326.189C322.216 325.784 322.79 325.693 323.195 325.993 323.6 326.293 323.691 326.868 323.391 327.272L314.657 339.114C314.291 339.61 313.73 339.949 313.103 340.028 313.012 340.028 312.907 340.041 312.816 340.041Z" fill="#009FE3"/></g></svg>