<svg width="47" height="47" xmlns="http://www.w3.org/2000/svg" xmlns:xlink="http://www.w3.org/1999/xlink" xml:space="preserve" overflow="hidden"><g transform="translate(-1129 -560)"><path d="M22.4071 7.05C21.5099 7.05 20.6444 7.4465 20.0323 8.13766 19.5594 8.67176 18.9958 9.65576 18.9958 11.3111 18.9958 11.3348 18.9967 11.3585 18.9986 11.3821 19.1863 13.7899 19.5763 16.1919 20.16 18.5384L9.85694 18.5384C8.16521 18.5384 6.78889 19.9147 6.78889 21.6064 6.78889 22.8575 7.5418 23.9363 8.61823 24.4132 8.36796 24.8574 8.225 25.3697 8.225 25.9148 8.225 27.1659 8.97791 28.2445 10.0543 28.7216 9.80407 29.1657 9.66111 29.678 9.66111 30.2231 9.66111 31.4742 10.414 32.5529 11.4905 33.0299 11.2402 33.4741 11.0972 33.9865 11.0972 34.5316 11.0972 36.2233 12.4735 37.5996 14.1653 37.5996L23.5 37.5996C26.056 37.5996 27.346 37.0816 28.7118 36.5332 30.6017 35.7743 32.7439 34.9141 39.2972 34.9141 39.8019 34.9141 40.2111 34.5049 40.2111 34.0002L40.2111 20.8884C40.2111 20.3836 39.8019 19.9745 39.2972 19.9745L35.0074 19.9745C29.4317 19.7434 25.0955 15.1954 25.1319 9.61254 25.1319 8.14915 23.9605 7.05 22.4071 7.05ZM20.8237 11.2766C20.8291 10.4361 21.0282 9.77012 21.4008 9.34934 21.764 8.93901 22.1871 8.87778 22.4071 8.87778 22.7173 8.87778 23.3042 9.03014 23.3042 9.60654 23.2835 12.7649 24.4755 15.7681 26.6606 18.057 28.8457 20.3459 31.7905 21.6757 34.9526 21.8016 34.9647 21.8021 34.9769 21.8024 34.9889 21.8024L38.3833 21.8024 38.3833 33.0924C32.1716 33.1743 29.8848 34.0928 28.0307 34.8373 26.7301 35.3595 25.7027 35.7721 23.5 35.7721L14.1653 35.7721C13.4814 35.7721 12.925 35.2157 12.925 34.5318 12.925 33.848 13.4814 33.2915 14.1653 33.2915 14.67 33.2915 15.0792 32.8824 15.0792 32.3776 15.0792 31.8729 14.67 31.4638 14.1653 31.4638L12.7292 31.4638C12.0453 31.4638 11.4889 30.9073 11.4889 30.2235 11.4889 29.5396 12.0453 28.9832 12.7292 28.9832 13.2339 28.9832 13.6431 28.574 13.6431 28.0693 13.6431 27.5646 13.2339 27.1554 12.7292 27.1554L11.2931 27.1554C10.6092 27.1554 10.0528 26.599 10.0528 25.9151 10.0528 25.2313 10.6092 24.6749 11.2931 24.6749 11.7978 24.6749 12.2069 24.2657 12.2069 23.761 12.2069 23.2563 11.7978 22.8471 11.2931 22.8471L9.85694 22.8471C9.17309 22.8471 8.61667 22.2907 8.61667 21.6068 8.61667 20.923 9.17309 20.3665 9.85694 20.3665L21.3458 20.3665C21.6315 20.3665 21.9007 20.233 22.0736 20.0054 22.2464 19.7779 22.3029 19.4828 22.2263 19.2076 21.5065 16.6212 21.0347 13.9534 20.8237 11.277Z" fill="#009FE3" transform="matrix(1.00036 0 0 1 1128.99 560)"/></g></svg>