<svg width="47" height="47" xmlns="http://www.w3.org/2000/svg" xmlns:xlink="http://www.w3.org/1999/xlink" xml:space="preserve" overflow="hidden"><g transform="translate(-572 -139)"><path d="M609.899 178.858C609.835 178.858 609.769 178.855 609.704 178.847L581.103 178.847C580.193 178.948 579.351 178.317 579.203 177.404 579.134 176.977 579.224 176.548 579.458 176.187L593.944 147.216C594.273 146.558 594.805 146.181 595.404 146.181 596.002 146.181 596.534 146.558 596.863 147.216L611.349 176.187C611.847 176.956 611.658 177.991 610.907 178.532 610.609 178.746 610.259 178.858 609.899 178.858ZM609.817 177.183 609.818 177.183 609.817 177.183ZM581.085 177.02 609.722 177.02 595.404 148.384 581.085 177.02ZM595.417 173.109C594.719 173.106 594.158 172.566 594.131 171.879L594.132 171.879C594.131 171.871 594.131 171.863 594.131 171.855L594.131 171.855C594.124 171.517 594.249 171.196 594.484 170.952 594.719 170.708 595.034 170.57 595.373 170.563 595.38 170.563 595.387 170.563 595.394 170.563 595.401 170.563 595.414 170.563 595.421 170.563 596.098 170.576 596.649 171.116 596.676 171.793L596.676 171.793C596.676 171.801 596.676 171.809 596.677 171.817 596.683 172.156 596.557 172.476 596.323 172.72 596.088 172.964 595.773 173.102 595.434 173.109 595.428 173.109 595.423 173.109 595.417 173.109ZM595.41 172.39C595.409 172.391 595.409 172.391 595.409 172.391 595.409 172.391 595.409 172.391 595.41 172.39ZM595.404 169.518C594.899 169.518 594.49 169.109 594.49 168.605L594.49 158.552C594.49 158.047 594.899 157.638 595.404 157.638 595.908 157.638 596.318 158.047 596.318 158.552L596.318 168.605C596.318 169.109 595.908 169.518 595.404 169.518Z" fill="#009FE3"/></g></svg>