<svg width="47" height="48" xmlns="http://www.w3.org/2000/svg" xmlns:xlink="http://www.w3.org/1999/xlink" xml:space="preserve" overflow="hidden"><g transform="translate(-849 -561)"><path d="M35.9576 44.4254 11.0424 44.4254C10.5371 44.4254 10.1285 44.0168 10.1285 43.5116 10.1285 43.0063 10.5371 42.5977 11.0424 42.5977L35.9576 42.5977C36.4629 42.5977 36.8715 43.0063 36.8715 43.5116 36.8715 44.0168 36.4629 44.4254 35.9576 44.4254ZM30.3907 41.3287 16.608 41.3287C16.1027 41.3287 15.6941 40.92 15.6941 40.4148 15.6941 39.9095 16.1027 39.5009 16.608 39.5009L30.3907 39.5009C30.896 39.5009 31.3046 39.9095 31.3046 40.4148 31.3046 40.92 30.896 41.3287 30.3907 41.3287ZM23.5 36.4172C17.3417 36.4172 12.3323 31.2759 12.3323 24.9557 12.3323 20.005 19.1838 7.92081 22.1305 2.95447 22.2597 2.73514 22.4425 2.54714 22.6592 2.41136 23.0248 2.18289 23.4556 2.11239 23.8734 2.21292 24.2938 2.31475 24.6476 2.57847 24.8695 2.95317L24.8695 2.95317C27.8149 7.91689 34.6677 19.9972 34.6677 24.9544 34.6677 31.2746 29.6583 36.4159 23.5 36.4159ZM23.5 4.23C17.6472 14.1392 14.1601 21.8707 14.1601 24.9557 14.1601 30.268 18.3496 34.5894 23.5 34.5894 28.6504 34.5894 32.8399 30.268 32.8399 24.9557 32.8399 20.4554 25.944 8.36992 23.5 4.23ZM23.2976 3.88794C23.2976 3.88794 23.2976 3.88794 23.2976 3.88794 23.2976 3.88794 23.2976 3.88794 23.2976 3.88794ZM23.3499 30.7863C22.8446 30.7863 22.436 30.3777 22.436 29.8724 22.436 29.3672 22.8446 28.9585 23.3499 28.9585 25.7508 28.9585 27.7039 27.0733 27.7039 24.7546 27.7039 24.2494 28.1125 23.8407 28.6178 23.8407 29.123 23.8407 29.5317 24.2494 29.5317 24.7546 29.5317 28.0799 26.7587 30.7863 23.3499 30.7863Z" fill="#009FE3" transform="matrix(1 0 0 1.02128 849 561)"/></g></svg>